<svg width="279" height="270" viewBox="0 0 279 270" fill="none" xmlns="http://www.w3.org/2000/svg">
<rect width="279" height="270" fill="#E1E1E1"/>
<path d="M177.796 54H176.618H164.739H161.432V156.878C155.434 154.444 148.277 153.602 140.84 155.082C123.963 158.466 112.448 172.029 115.125 185.387C117.796 198.751 133.638 206.85 150.523 203.466C164.797 200.611 175.141 190.439 176.386 179.279H176.617V95.9882C198.824 99.5093 202.101 117.044 199.394 124.38C198.371 127.175 200.182 129.275 203.621 124.38C228.173 89.3818 174.942 77.0967 177.796 54Z" fill="#4F4F4F"/>
<path d="M140.248 124.607H79V137.351H140.25V124.607H140.248Z" fill="#4F4F4F"/>
<path d="M140.248 100.989H79V113.732H140.25V100.989H140.248Z" fill="#4F4F4F"/>
<path d="M140.248 77.3713H79V90.1153H140.25V77.3713H140.248Z" fill="#4F4F4F"/>
</svg>
